# AST/ASF file generated using VICON BodyLanguage
# -----------------------------------------------
:version 1.10
:name VICON
:units
  mass 1.0
  length 0.45
  angle deg
:documentation
   .ast/.asf automatically generated from VICON data using
   VICON BodyBuilder and BodyLanguage model FoxedUp or BRILLIANT.MOD
:root
   order TX TY TZ RX RY RZ
   axis XYZ
   position 0 0 0  
   orientation 0 0 0 
:bonedata
  begin
     id 1 
     name lhipjoint
     direction 0.558404 -0.748506 0.357664 
     length 2.4234 
     axis 0 0 0  XYZ
  end
  begin
     id 2 
     name lfemur
     direction 0.34202 -0.939693 0  
     length 7.14567  
     axis 0 0 20  XYZ
    dof rx ry rz
    limits (-160.0 20.0)
           (-70.0 70.0)
           (-60.0 70.0)
  end
  begin
     id 3 
     name ltibia
     direction 0.34202 -0.939693 0   
     length 8.13956   
     axis 0 0 20   XYZ
    dof rx
    limits (-10.0 170.0)
  end
  begin
     id 4 
     name lfoot
     direction 0.0791314 -0.217412 0.972867   
     length 2.00134   
     axis -90 7.62852e-016 20   XYZ
    dof rx rz
    limits (-45.0 90.0)
           (-70.0 20.0)
  end
  begin
     id 5 
     name ltoes
     direction 1.53547e-011 -4.21922e-011 1   
     length 1.00735   
     axis -90 7.62852e-016 20   XYZ
    dof rx
    limits (-90.0 20.0)
  end
  begin
     id 6 
     name rhipjoint
     direction -0.496392 -0.78327 0.374276   
     length 2.31584  
     axis 0 0 0  XYZ 
  end
  begin
     id 7 
     name rfemur
     direction -0.34202 -0.939693 0   
     length 7.47417   
     axis 0 0 -20   XYZ
    dof rx ry rz
    limits (-160.0 20.0)
           (-70.0 70.0)
           (-70.0 60.0)
  end
  begin
     id 8 
     name rtibia
     direction -0.34202 -0.939693 0   
     length 7.69071   
     axis 0 0 -20   XYZ
    dof rx
    limits (-10.0 170.0)
 end
 begin
     id 9 
     name rfoot
     direction -0.103069 -0.28318 0.953512   
     length 2.16135  
     axis -90 -7.62852e-016 -20   XYZ
    dof rx rz
    limits (-45.0 90.0)
           (-20.0 70.0)
  end
  begin
     id 10 
     name rtoes
     direction -1.53581e-011 -4.21904e-011 1   
     length 1.07867   
     axis -90 -7.62852e-016 -20   XYZ
    dof rx
    limits (-90.0 20.0)
  end
  begin
     id 11 
     name lowerback
     direction -0.0258961 0.994776 -0.0987407   
     length 2.19412   
     axis 0 0 0   XYZ
    dof rx ry rz
    limits (-20.0 45.0)
           (-30.0 30.0)
           (-30.0 30.0)
  end
  begin
     id 12 
     name upperback
     direction 0.0402454 0.999185 0.00320666   
     length 2.18445   
     axis 0 0 0   XYZ
    dof rx ry rz
    limits (-20.0 45.0)
           (-30.0 30.0)
           (-30.0 30.0)
  end
  begin
     id 13 
     name thorax
     direction 0.0519376 0.997415 0.0496558   
     length 2.21487   
     axis 0 0 0   XYZ
    dof rx ry rz
    limits (-20.0 45.0)
           (-30.0 30.0)
           (-30.0 30.0)
  end
  begin
     id 14 
     name lowerneck
     direction -0.0921276 0.983211 0.157506   
     length 1.61201   
     axis 0 0 0   XYZ
    dof rx ry rz
    limits (-20.0 45.0)
           (-30.0 30.0)
           (-30.0 30.0)
  end
  begin
     id 15 
     name upperneck
     direction 0.0820814 0.98162 -0.172292   
     length 1.65275   
     axis 0 0 0   XYZ
    dof rx ry rz
    limits (-20.0 45.0)
           (-30.0 30.0)
           (-30.0 30.0)
  end
  begin
     id 16
     name head
     direction 0.0336554 0.996413 -0.0776455  
     length 1.66415  
     axis 0 0 0   XYZ
    dof rx ry rz
    limits (-20.0 45.0)
           (-30.0 30.0)
           (-30.0 30.0)
  end
  begin
     id 17 
     name lclavicle
     direction 0.94696 0.284418 -0.149576  
     length 3.41447  
     axis 0 0 0   XYZ
    dof ry rz
    limits (-20.0 10.0)
           (0.0 20.0)
  end
  begin
     id 18 
     name lhumerus
     direction 1 -0.000130264 -9.81312e-005   
     length 5.19964   
     axis 180 -30 -90   XYZ
    dof rx ry rz
    limits (-60.0 90.0)
           (-90.0 90.0)
           (-90.0 90.0)
  end
  begin
     id 19
     name lradius
     direction 1 -4.48961e-011 1.43854e-026   
     length 3.32189   
     axis 180 -30 -90   XYZ
    dof rx
    limits (-10.0 170.0)
  end
  begin
     id 20
     name lwrist
     direction 1 -4.48958e-011 3.1502e-026   
     length 1.66095   
     axis -1.97692e-014 90 90   XYZ
    dof ry
    limits (-180.0 0.0)
 end
  begin
     id 21 
     name lhand
     direction 1 -4.48927e-011 6.3004e-026   
     length 0.645616   
     axis -4.02019e-014 90 90   XYZ
    dof rx rz
    limits (-90.0 90.0)
           (-45.0 45.0)
  end
  begin
     id 22 
     name lfingers
     direction 1 -4.4904e-011 1.26008e-025   
     length 0.520512   
     axis -8.04039e-014 90 90   XYZ
    dof rx
    limits (0.0 90.0)
  end
  begin
     id 23
     name lthumb
     direction 0.707107 -6.34947e-011 0.707107   
     length 0.747354   
     axis -90 45 2.85299e-015   XYZ
    dof rx rz
    limits (-45.0 45.0)
           (-45.0 45.0)
  end
  begin
     id 24 
     name rclavicle
     direction -0.909391 0.383475 -0.161107   
     length 3.25176  
     axis 0 0 0   XYZ 
    dof ry rz
    limits (-10.0 20.0)
           (-20.0 0.0)
  end
  begin
     id 25 
     name rhumerus
     direction -1 -4.48965e-011 -1.81384e-027  
     length 5.6595   
     axis 180 30 90   XYZ
    dof rx ry rz
    limits (-90.0 60.0)
           (-90.0 90.0)
           (-90.0 90.0)
  end
  begin
     id 26 
     name rradius
     direction -1 -4.48996e-011 -8.09397e-027   
     length 3.37604   
     axis 180 30 90   XYZ
    dof rx
    limits (-10.0 170.0)
  end
  begin
     id 27 
     name rwrist
     direction -1 -4.48927e-011 -1.56669e-026   
     length 1.68802   
     axis 1.21142e-014 -90 -90   XYZ
    dof ry
    limits (-180.0 0.0)
  end
  begin
     id 28
     name rhand
     direction -1 -4.48912e-011 -3.13339e-026   
     length 0.824702   
     axis 1.99937e-014 -90 -90   XYZ
    dof rx rz
    limits (-90.0 90.0)
           (-45.0 45.0)
  end
  begin
     id 29
     name rfingers
     direction -1 -4.49011e-011 -6.26677e-026   
     length 0.664896   
     axis 3.99874e-014 -90 -90   XYZ
    dof rx
    limits (0.0 90.0)
  end
  begin
     id 30
     name rthumb
     direction -0.707107 -6.34931e-011 0.707107   
     length 0.954662   
     axis -90 -45 -2.85299e-015   XYZ
    dof rx rz
    limits (-45.0 45.0)
           (-45.0 45.0)
  end
:hierarchy
  begin
    root lhipjoint rhipjoint lowerback
    lhipjoint lfemur
    lfemur ltibia
    ltibia lfoot
    lfoot ltoes
    rhipjoint rfemur
    rfemur rtibia
    rtibia rfoot
    rfoot rtoes
    lowerback upperback
    upperback thorax
    thorax lowerneck lclavicle rclavicle
    lowerneck upperneck
    upperneck head
    lclavicle lhumerus
    lhumerus lradius
    lradius lwrist
    lwrist lhand lthumb
    lhand lfingers
    rclavicle rhumerus
    rhumerus rradius
    rradius rwrist
    rwrist rhand rthumb
    rhand rfingers
  end

#!OML:ASF F:\VICON\USERDATA\INSTALL\rory3\rory3.ASF
:FULLY-SPECIFIED
:DEGREES
412
root 3.04432 14.143 1.32595 -15.301 -16.9051 -0.739733
lowerback 20.9195 -1.60767 -6.86633
upperback 4.93084 -3.20187 6.44664
thorax -5.4812 -1.55879 11.9517
lowerneck -5.24744 -7.52689 -14.6751
upperneck 31.2899 -10.556 5.55773
head 12.3252 -5.9472 3.25797
rclavicle -3.77691e-015 -1.27222e-014
rhumerus -51.1178 -17.6244 -49.7809
rradius 40.8849
rwrist -12.0041
rhand -19.3773 24.8802
rfingers 7.12502
rthumb 6.94094 -4.98603
lclavicle -3.77691e-015 -1.27222e-014
lhumerus -24.0504 31.633 36.0795
lradius 26.2023
lwrist -4.01739
lhand -14.5246 38.8319
lfingers 7.12502
lthumb 11.6232 68.4895
rfemur -36.2004 -4.76773 -8.17702
rtibia 52.9297
rfoot 0.362957 -32.0712
rtoes 48.3807
lfemur -36.9273 12.6888 -37.4815
ltibia 76.7204
lfoot -21.879 3.58441
ltoes 28.3615
413
root 3.11653 14.2173 1.51155 -14.3846 -16.6602 -1.85753
lowerback 20.4561 -2.02998 -5.66185
upperback 4.90729 -3.46227 6.87541
thorax -5.25174 -1.71394 11.7416
lowerneck -5.58978 -7.43269 -14.1564
upperneck 31.1034 -10.2405 4.94039
head 12.2063 -5.80059 2.96981
rclavicle -4.17448e-015 2.38542e-014
rhumerus -51.8046 -17.3475 -51.201
rradius 40.3285
rwrist -13.762
rhand -20.9825 23.7223
rfingers 7.12502
rthumb 5.39124 -6.18917
lclavicle -4.17448e-015 2.38542e-014
lhumerus -22.4331 31.2634 40.349
lradius 25.7556
lwrist -4.94437
lhand -14.5974 36.8989
lfingers 7.12502
lthumb 11.553 66.5604
rfemur -38.8649 -5.57724 -3.90403
rtibia 48.7252
rfoot -13.8305 -31.2793
rtoes 63.0184
lfemur -36.5522 12.9311 -36.8123
ltibia 76.2863
lfoot -22.4833 3.23966
ltoes 28.7512
414
root 3.16108 14.255 1.69399 -13.2861 -16.9937 -3.02986
lowerback 19.5691 -2.31756 -4.48133
upperback 5.02705 -3.56869 7.33727
thorax -4.67848 -1.8167 11.4984
lowerneck -6.16435 -7.26051 -13.6357
upperneck 30.9989 -9.81588 4.41623
head 12.1654 -5.59318 2.72609
rclavicle 5.4467e-014 1.27222e-014
rhumerus -52.3993 -17.825 -51.7145
rradius 39.0135
rwrist -12.66
rhand -20.6626 24.344
rfingers 7.12502
rthumb 5.70012 -5.55933
lclavicle 5.4467e-014 1.27222e-014
lhumerus -21.4862 28.962 44.8903
lradius 27.0269
lwrist -3.47364
lhand -14.9633 37.396
lfingers 7.12502
lthumb 11.2001 67.077
rfemur -41.7452 -6.36851 0.963692
rtibia 45.5611
rfoot -20.3577 -28.0439
rtoes 72.2085
lfemur -36.7565 13.8446 -35.9146
ltibia 76.0984
lfoot -23.0642 2.49273
ltoes 30.8097
415
root 3.21472 14.2914 1.96953 -14.1373 -16.5608 -0.612463
lowerback 18.5799 -2.34445 -6.27147
upperback 5.42506 -3.9765 6.64562
thorax -3.54913 -2.09584 11.739
lowerneck -6.3888 -7.02238 -13.1976
upperneck 30.7023 -9.37774 4.05203
head 11.9926 -5.37699 2.57295
rclavicle -3.08116e-014 1.74931e-014
rhumerus -52.8523 -17.5176 -53.4962
rradius 38.8831
rwrist -16.0616
rhand -22.6947 22.6429
rfingers 7.12502
rthumb 3.73792 -7.30402
lclavicle -3.08116e-014 1.74931e-014
lhumerus -19.9923 28.5072 48.9397
lradius 27.0853
lwrist -3.50358
lhand -15.2526 37.7799
lfingers 7.12502
lthumb 10.9211 67.4759
rfemur -43.9443 -10.2896 2.84496
rtibia 43.4408
rfoot -10.605 -27.0051
rtoes 69.7747
lfemur -34.5634 14.9164 -38.8691
ltibia 74.9639
lfoot -24.3894 2.25397
ltoes 32.5101
416
root 3.26274 14.3254 2.16873 -13.3003 -16.5467 -1.34332
lowerback 17.8262 -2.6311 -5.26942
upperback 5.39758 -4.14537 6.8687
thorax -3.20471 -2.19734 11.3541
lowerneck -6.08726 -6.75327 -12.944
upperneck 30.1453 -9.02041 3.99457
head 11.6494 -5.18874 2.57311
rclavicle -7.15625e-014 2.38542e-014
rhumerus -53.709 -17.9852 -54.3952
rradius 38.4163
rwrist -17.614
rhand -23.8396 21.6169
rfingers 7.12502
rthumb 2.63228 -8.34665
lclavicle -7.15625e-014 2.38542e-014
lhumerus -17.9672 28.7682 52.9972
lradius 26.393
lwrist -3.67636
lhand -15.4119 37.6302
lfingers 7.12502
lthumb 10.7675 67.3342
rfemur -47.1006 -13.4436 8.49404
rtibia 41.7319
rfoot -5.29034 -24.2433
rtoes 66.1184
lfemur -34.1506 15.8426 -38.5243
ltibia 74.4411
lfoot -25.218 1.76509
ltoes 32.7429
417
root 3.31252 14.3522 2.3609 -13.0089 -15.5456 -1.53299
lowerback 17.5293 -3.12738 -4.98671
upperback 5.36796 -4.74409 6.95635
thorax -2.95834 -2.5105 11.3612
lowerneck -6.3205 -6.48382 -12.5586
upperneck 30.0707 -8.57578 3.71986
head 11.5835 -4.97064 2.46173
rclavicle -5.74488e-014 3.97569e-014
rhumerus -54.6557 -19.1032 -54.1218
rradius 37.0994
rwrist -16.2454
rhand -22.9523 22.4344
rfingers 7.12502
rthumb 3.48914 -7.51675
lclavicle -5.74488e-014 3.97569e-014
lhumerus -16.0771 28.7937 57.1538
lradius 25.8761
lwrist -3.24101
lhand -15.5928 37.1563
lfingers 7.12502
lthumb 10.5929 66.8693
rfemur -49.7276 -17.5492 13.5273
rtibia 40.1326
rfoot -0.775402 -19.5707
rtoes 57.8914
lfemur -32.9336 16.0094 -38.8401
ltibia 73.6624
lfoot -25.9509 1.49052
ltoes 32.7444
418
root 3.36377 14.3707 2.55012 -12.6461 -14.6633 -1.54591
lowerback 17.2452 -3.58274 -4.91417
upperback 5.15475 -5.32079 7.016
thorax -2.90682 -2.79486 11.4653
lowerneck -6.96322 -6.22752 -11.9854
upperneck 30.5462 -8.08801 3.18924
head 11.7975 -4.748 2.2147
rclavicle -3.37934e-015 -6.83819e-014
rhumerus -55.7392 -19.8694 -53.9357
rradius 36.3426
rwrist -16.0366
rhand -22.4994 21.8633
rfingers 7.12502
rthumb 3.92649 -8.08024
lclavicle -3.37934e-015 -6.83819e-014
lhumerus -14.5217 28.2788 61.239
lradius 25.4729
lwrist -2.68831
lhand -15.9387 37.239
lfingers 7.12502
lthumb 10.2593 66.9688
rfemur -52.4122 -20.7015 18.334
rtibia 38.2912
rfoot 2.59632 -14.0457
rtoes 45.9198
lfemur -32.05 15.9755 -39.3403
ltibia 73.0645
lfoot -26.6327 1.2005
ltoes 33.0818
